# xmcd
#
# Track frame offsets: 
#        150
#        16872
#        45035
#        64671
#        88299
#        116424
#        155478
#        196815
#        224206
#        262577
#
# Disc length: 3792 seconds
#
# Revision: 0
# Processed by: cddbd v1.5.1PL0 Copyright (c) Steve Scherf et al.
# Submitted via: ExactAudioCopy v0.95b2
#
DISCID=7c0ece0a
DTITLE=Eric Clapton - Bercy 2001 CD1
DYEAR=2001
DGENRE=Blues
TTITLE0=Key To The Highway
TTITLE1=Reptile
TTITLE2=Tears In Heaven
TTITLE3=Bell Bottom Blue
TTITLE4=Change The World
TTITLE5=My Father's Eyes
TTITLE6=Rivers Of Tears
TTITLE7=Goin' Down Slow
TTITLE8=She's Gone
TTITLE9=Got You On My Mind
EXTD=
EXTT0=
EXTT1=
EXTT2=
EXTT3=
EXTT4=
EXTT5=
EXTT6=
EXTT7=
EXTT8=
EXTT9=
PLAYORDER=
